<svg width="354" height="474" viewBox="0 0 354 474" fill="none" xmlns="http://www.w3.org/2000/svg">
<path d="M155.047 48.1982C95.0583 48.1984 46.6904 98.1929 46.6904 159.527C46.6907 220.862 95.0585 270.855 155.047 270.855C215.035 270.855 263.404 220.862 263.404 159.527C263.404 98.1928 215.036 48.1982 155.047 48.1982ZM69.0645 285.566L66.8711 283.916C29.6938 255.949 5.50015 210.679 5.5 159.527C5.5 74.3204 72.6092 5.50015 155.047 5.5C181.865 5.5 207.005 12.7495 228.752 25.4932L230.095 26.2803L231.651 26.2471L239.245 26.082H322.276C330.306 26.082 336.678 28.8512 341.034 33.2441C345.398 37.6443 348.086 44.0236 348.086 51.8701C348.086 59.7437 345.476 65.787 341.255 69.8682C337.016 73.9666 330.651 76.5664 322.276 76.5664H281.217L285.77 84.7422C286.876 86.7295 287.911 88.7634 288.949 90.877V90.8779C298.973 111.527 304.595 134.85 304.595 159.527C304.594 243.653 239.201 311.794 158.207 313.508L158.145 313.509L158.083 313.512C157.139 313.553 156.175 313.554 155.047 313.554C144.932 313.554 135.059 312.502 125.492 310.533L120.347 309.475L119.053 314.566C115.489 328.596 109.649 341.456 103.378 352.11L94.6084 367.009L110.374 359.916C133.039 349.719 158.566 343.752 183.648 342.988V343.022H189.148C249.392 343.023 293.912 384.341 293.912 438.295C293.912 447.608 290.761 454.994 285.625 460.046C280.482 465.106 272.926 468.238 263.372 468.238C255.207 468.238 249.799 465.406 246.26 461.703C242.608 457.882 240.62 452.78 240.092 447.932L240.09 447.916L240.089 447.9L239.939 446.721C236.533 421.959 215.332 398.112 176.805 398.112C146.88 398.112 118.984 409.519 93.7812 420.659L93.6973 420.696L93.6143 420.736C90.9516 422.021 88.0483 423.491 85.1201 424.985C75.7792 429.719 65.9532 434.733 55.1543 437.074L55.1309 437.08L55.1074 437.085C51.5258 437.894 47.9877 438.255 44.7148 438.255C41.2332 438.255 38.246 437.838 35.6865 437.051C24.1304 433.094 16.2061 421.953 16.2061 410.307C16.2061 398.631 22.8579 390.783 32.6104 379.604L32.6113 379.604C34.0109 378.025 35.4983 376.348 37.0137 374.575C49.7342 360.602 65.0604 337.346 69.0273 303.383L69.0645 303.065V285.566Z" fill="#8BAAF1" stroke="url(#paint0_linear_1_786)" stroke-width="11"/>
<path d="M155.046 126.166C172.723 126.166 187.339 140.961 187.339 159.527C187.338 178.12 172.721 192.911 155.046 192.911C137.37 192.911 122.753 178.12 122.753 159.527C122.753 140.939 137.366 126.166 155.046 126.166Z" fill="#8BAAF1" stroke="url(#paint1_linear_1_786)" stroke-width="11"/>
<defs>
<linearGradient id="paint0_linear_1_786" x1="176.793" y1="0" x2="176.793" y2="473.738" gradientUnits="userSpaceOnUse">
<stop stop-color="white" stop-opacity="0.1"/>
<stop offset="1" stop-color="white" stop-opacity="0"/>
</linearGradient>
<linearGradient id="paint1_linear_1_786" x1="155.045" y1="120.666" x2="155.045" y2="198.412" gradientUnits="userSpaceOnUse">
<stop stop-color="white" stop-opacity="0.1"/>
<stop offset="1" stop-color="white" stop-opacity="0"/>
</linearGradient>
</defs>
</svg>
