<svg width="30" height="30" viewBox="0 0 30 30" fill="none" xmlns="http://www.w3.org/2000/svg">
<path d="M23.2592 3.67188C23.9085 3.67188 24.5313 3.92982 24.9904 4.38896C25.4496 4.84811 25.7075 5.47084 25.7075 6.12017V23.2582C25.7075 23.9076 25.4496 24.5303 24.9904 24.9894C24.5313 25.4486 23.9085 25.7065 23.2592 25.7065H6.12115C5.47182 25.7065 4.84908 25.4486 4.38994 24.9894C3.9308 24.5303 3.67285 23.9076 3.67285 23.2582V6.12017C3.67285 5.47084 3.9308 4.84811 4.38994 4.38896C4.84908 3.92982 5.47182 3.67188 6.12115 3.67188H23.2592ZM22.6471 22.6462V16.1582C22.6471 15.0998 22.2267 14.0847 21.4783 13.3363C20.7299 12.5879 19.7148 12.1675 18.6564 12.1675C17.6159 12.1675 16.404 12.804 15.8164 13.7588V12.4H12.401V22.6462H15.8164V16.6111C15.8164 15.6685 16.5754 14.8973 17.518 14.8973C17.9725 14.8973 18.4084 15.0779 18.7298 15.3993C19.0512 15.7207 19.2318 16.1566 19.2318 16.6111V22.6462H22.6471ZM8.42254 10.4781C8.96798 10.4781 9.49107 10.2615 9.87675 9.87578C10.2624 9.4901 10.4791 8.967 10.4791 8.42157C10.4791 7.28311 9.561 6.35276 8.42254 6.35276C7.87386 6.35276 7.34765 6.57072 6.95967 6.9587C6.5717 7.34667 6.35373 7.87288 6.35373 8.42157C6.35373 9.56002 7.28408 10.4781 8.42254 10.4781ZM10.1241 22.6462V12.4H6.73322V22.6462H10.1241Z" fill="#001B52"/>
</svg>
